# xmcd CD database file
#
# Track frame offsets:
#	150
#	15825
#	31632
#	46505
#
# Disc length: 854 seconds
#
# Revision: 0
# Processed by: cddbd v1.5PL3 Copyright (c) Steve Scherf et al.
# Submitted via: CDex 1.51
#
DISCID=15035404
DTITLE=Britney Spears - Lucky
DYEAR=1900
DGENRE=Pop
TTITLE0=Lucky (Album Version)
TTITLE1=Lucky (Jack D.Elliott Radio Mix)
TTITLE2=Oops!..I Did It Again (Ospina's Crossover Mix)
TTITLE3=Oops!..I Did It Again (Riprock 'n' Alex G. Oops! We Remixed Again! Radio Mix)
EXTD=
EXTT0=
EXTT1=
EXTT2=
EXTT3=
PLAYORDER=
